<?xml version="1.0" encoding="UTF-8"?>
<svg id="Warstwa_1" data-name="Warstwa 1" xmlns="http://www.w3.org/2000/svg" xmlns:xlink="http://www.w3.org/1999/xlink" viewBox="0 0 542.47 143.36">
  <defs>
    <style>
      .cls-1 {
        clip-path: url(#clippath);
      }

      .cls-2 {
        fill: none;
      }

      .cls-3 {
        fill: #e71d73;
      }

      .cls-4 {
        fill: url(#Gradient_bez_nazwy_2);
      }
    </style>
    <clipPath id="clippath">
      <path class="cls-2" d="m61.25,40.97h9.6l10.51,38.39,10.97-38.39h10.05l10.97,38.39,10.51-38.39h9.6l-15.54,52.1h-8.68l-11.88-41.59-11.88,41.59h-8.68l-15.54-52.1Zm200.21,0h10.05l16.45,40.68,16.45-40.68h10.05l-21.94,52.1h-9.14l-21.94-52.1Zm124.77,41.13h.46c2.78,0,5.03,2.25,5.03,5.03h0c0,2.78-2.25,5.03-5.03,5.03h-.46c-2.78,0-5.03-2.25-5.03-5.03h0c0-2.78,2.25-5.03,5.03-5.03Zm19.65-41.13h9.14v51.19h-9.14v-51.19Zm-136.36,44.51l-1.82-6.76c-6.04,1.63-11.23,2.29-16.02,2.22v-14.97c0-14.32-11.41-25.92-25.48-25.92h-1.15c-13.18,0-24.02,10.18-25.34,23.23-.1-.03-.19-.07-.29-.1-5.1-1.74-9.68-2.7-13.8-3.09-.64-6.03-2.7-9.7-6.18-13.19-4.57-4.57-10.05-6.86-16.45-6.86s-12.19,2.14-16.45,6.4c-5.18,5.18-7.77,11.88-7.77,20.11s2.44,14.78,7.31,19.65c4.57,4.57,10.51,6.86,17.82,6.86s12.49-1.98,16.45-5.94c1.97-1.97,3.53-4.65,4.72-8.03h-9.84c-.53,1.06-1.25,2.06-2.18,3-1.83,1.83-4.88,2.74-9.14,2.74s-7.77-1.37-10.51-4.11c-3.05-3.04-4.75-7.46-4.82-14.56-.1-10.29,4.5-18.34,13.96-18.34,3.96,0,7.01,1.07,9.14,3.2,2.44,2.44,3.66,5.18,3.66,8.23l.08,1.09c-14.26,2.2-20.15,11.81-20.49,12.4l6.02,3.58c.39-.64,9.84-15.51,36.23-6.5.82.28,1.62.56,2.41.85v22.65h8.23c0-4.78.05-12.79.09-19.44,3.73,1.53,7.18,3.06,10.39,4.49,8.73,3.88,16.49,7.32,25.14,8.8,0,2.32.02,4.44.01,6.15h8.23v-5.4c.26,0,.51.02.76.02,5.14,0,10.73-.73,17.08-2.44Zm-48.38-13.52c-4-1.78-8.36-3.71-13.18-5.62,0-1.43.01-2.54.01-3.17,0-2.8,3.15-14.97,17.66-15.35,14.51.38,17.66,12.55,17.66,15.35,0,2.11.06,9.5.11,16.89-7.23-1.43-14.04-4.45-22.26-8.1Zm146.89-11.91c-.64-6.04-2.32-9.65-5.81-13.14-4.57-4.57-10.05-6.86-16.45-6.86s-12.19,2.14-16.45,6.4c-5.18,5.18-7.77,11.88-7.77,20.11s2.44,14.78,7.31,19.65c4.57,4.57,10.51,6.86,17.82,6.86s12.49-1.98,16.45-5.94c1.97-1.97,3.53-4.65,4.72-8.03h-9.84c-.53,1.06-1.25,2.06-2.18,3-1.83,1.83-4.88,2.74-9.14,2.74s-7.77-1.37-10.51-4.11c-3.05-3.04-4.75-7.46-4.82-14.56-.1-10.29,4.52-17.72,13.96-18.34,13.68-.9,14.73,11.78,14.71,12.13-15.6,1.92-22.04,12.28-22.33,12.78l6.03,3.55c.06-.11,6.67-10.96,24.44-9.16,0,0,.11-3.1-.14-7.08Zm77.16,22.97c-1.53-1.52-2.29-3.2-2.29-5.03v-28.43c2.11.37,4.23.56,6.37.56,4.54,0,9.19-.83,14.25-2.51l-2.2-6.65c-6.82,2.25-12.53,2.73-18.42,1.46v-19.29h-9.14v55.76c0,3.66,1.52,7.01,4.57,10.05,2.74,2.74,7.16,4.11,13.25,4.11,3.96,0,7.61-.91,10.97-2.74v-8.68c-3.36,2.14-7.16,3.2-11.43,3.2-2.74,0-4.73-.61-5.94-1.83Z"/>
    </clipPath>
    <linearGradient id="Gradient_bez_nazwy_2" data-name="Gradient bez nazwy 2" x1="-155.63" y1="153.15" x2="742.61" y2="-18.28" gradientUnits="userSpaceOnUse">
      <stop offset="0" stop-color="#fcea10"/>
      <stop offset=".23" stop-color="#f39200"/>
      <stop offset=".71" stop-color="#e71d73"/>
    </linearGradient>
  </defs>
  <g class="cls-1">
    <rect class="cls-4" width="542.47" height="143.36"/>
  </g>
  <path class="cls-3" d="m410.22,17.4h.46c2.78,0,5.03,2.25,5.03,5.03h0c0,2.78-2.25,5.03-5.03,5.03h-.46c-2.78,0-5.03-2.25-5.03-5.03h0c0-2.78,2.25-5.03,5.03-5.03Z"/>
</svg>